<?xml version="1.0" encoding="UTF-8" standalone="no"?>
<svg
   xmlns:dc="http://purl.org/dc/elements/1.1/"
   xmlns:cc="http://creativecommons.org/ns#"
   xmlns:rdf="http://www.w3.org/1999/02/22-rdf-syntax-ns#"
   xmlns:svg="http://www.w3.org/2000/svg"
   xmlns="http://www.w3.org/2000/svg"
   xmlns:sodipodi="http://sodipodi.sourceforge.net/DTD/sodipodi-0.dtd"
   xmlns:inkscape="http://www.inkscape.org/namespaces/inkscape"
   fill="#FFFFFF"
   height="24"
   viewBox="0 0 24 24"
   width="24"
   id="svg2"
   version="1.1"
   inkscape:version="0.91 r13725"
   sodipodi:docname="ic_date_range_white_short_24px.svg"
   inkscape:export-filename="C:\Users\Jakub\AndroidStudioProjects\Plany\app\src\main\res\drawable-mdpi\ic_date_range_white_short_24dp.png"
   inkscape:export-xdpi="90"
   inkscape:export-ydpi="90">
  <metadata
     id="metadata12">
    <rdf:RDF>
      <cc:Work
         rdf:about="">
        <dc:format>image/svg+xml</dc:format>
        <dc:type
           rdf:resource="http://purl.org/dc/dcmitype/StillImage" />
        <dc:title />
      </cc:Work>
    </rdf:RDF>
  </metadata>
  <defs
     id="defs10" />
  <sodipodi:namedview
     pagecolor="#ffffff"
     bordercolor="#666666"
     borderopacity="1"
     objecttolerance="10"
     gridtolerance="10"
     guidetolerance="10"
     inkscape:pageopacity="0"
     inkscape:pageshadow="2"
     inkscape:window-width="1216"
     inkscape:window-height="627"
     id="namedview8"
     showgrid="true"
     inkscape:zoom="19.666667"
     inkscape:cx="-1.089206"
     inkscape:cy="10.873934"
     inkscape:window-x="398"
     inkscape:window-y="49"
     inkscape:window-maximized="0"
     inkscape:current-layer="svg2">
    <inkscape:grid
       type="xygrid"
       id="grid3342" />
  </sodipodi:namedview>
  <path
     d="M 6 6 L 3.0078125 8.9921875 L 3.0039062 14.003906 L 5 16 L 5 9 L 9 9 L 6 6 z M 9 9 L 15 9 L 12 6 L 9 9 z M 15 9 L 19 9 L 19 16 L 21 14 L 21 9 L 18 6 L 15 9 z M 7 11 L 7 13 L 9 13 L 9 11 L 7 11 z M 11 11 L 11 13 L 13 13 L 13 11 L 11 11 z M 15 11 L 15 13 L 17 13 L 17 11 L 15 11 z "
     id="path4" />
  <path
     d="M 6 2 L 6 4 L 5 4 C 3.89 4 3.0097656 4.9 3.0097656 6 L 3.0078125 8.9921875 L 6 6 L 9 9 L 12 6 L 15 9 L 18 6 L 21 9 L 21 6 C 21 4.9 20.1 4 19 4 L 18 4 L 18 2 L 16 2 L 16 4 L 8 4 L 8 2 L 6 2 z M 21 14 L 19 16 L 19 20 L 5 20 L 5 16 L 3.0039062 14.003906 L 3 20 C 3 21.1 3.89 22 5 22 L 19 22 C 20.1 22 21 21.1 21 20 L 21 14 z "
     id="path4146"
     style="fill:#ffffff;fill-opacity:0.24313726" />
  <path
     d="M0 0h24v24H0z"
     fill="none"
     id="path6" />
</svg>
